# xmcd CD database file
#
# Track frame offsets:
#	150
#	19365
#	31518
#	50224
#	64299
#	84295
#	96348
#	116933
#	134351
#	150527
#	167752
#	187230
#	203986
#	219579
#
# Disc length: 3164 seconds
#
# Revision: 0
# Processed by: cddbd v1.5.2PL0 Copyright (c) Steve Scherf et al.
# Submitted via: CDex 1.70beta3
#
DISCID=ce0c5a0e
DTITLE=Teddy Wilson - Three Little Words
DYEAR=1976
DGENRE=Jazz
TTITLE0=St. Louis Blues
TTITLE1=Three Little Words
TTITLE2=I've Got The World On A String
TTITLE3=Don't Be That Way
TTITLE4=You Go To My Head
TTITLE5=My Heart Stood Still
TTITLE6=Where Or When
TTITLE7=Basin Street Blues
TTITLE8=I've Got My Love To Keep Me Warm
TTITLE9=Flyin' Home
TTITLE10=I Didn't Know What Time It Was
TTITLE11=Sweet Lorraine
TTITLE12=Sugar
TTITLE13=Undecided
EXTD=YEAR: 1976
EXTT0=
EXTT1=
EXTT2=
EXTT3=
EXTT4=
EXTT5=
EXTT6=
EXTT7=
EXTT8=
EXTT9=
EXTT10=
EXTT11=
EXTT12=
EXTT13=
PLAYORDER=
